<svg id="Layer_1" data-name="Layer 1" xmlns="http://www.w3.org/2000/svg" viewBox="0 0 200 100"><defs><style>.cls-1,.cls-3{fill:#fff;}.cls-2{fill:#ccc;}.cls-3{opacity:0.3;}.cls-4{fill:#c6d2db;}</style></defs><path class="cls-1" d="M23.63,34.32H43v5.94H30.87v6.41h9.06v5.76H30.87V64.74H23.63Z"/><path class="cls-1" d="M46.79,32.67H54V64.74H46.79Z"/><path class="cls-1" d="M70,65.09c-7,0-12.2-4.77-12.2-12.44s5.38-12.44,12.28-12.44S82.4,45,82.4,52.65,77,65.09,70,65.09Zm0-6.42c2.58,0,5-2,5-6s-2.37-6-4.91-6-4.91,1.9-4.91,6S67.41,58.67,70,58.67Z"/><path class="cls-1" d="M83.8,40.56H91l3.35,17.29,4-17.29H106l4,17.2,3.3-17.2h6.82l-6.4,24.18h-8l-3.73-15.69L98.2,64.74h-8Z"/><polygon class="cls-2" points="159.02 49.12 139.49 72.37 114.38 72.37 133.93 49.12 114.38 25.87 139.47 25.87 159.02 49.12"/><polygon class="cls-3" points="165.97 49.12 153.5 63.96 137.47 63.96 149.95 49.12 137.47 34.27 153.49 34.27 165.97 49.12"/><polygon class="cls-4" points="160.63 49.12 145.65 66.95 135.95 66.95 150.95 49.12 135.95 31.28 145.63 31.28 160.63 49.12"/></svg>